<mxfile host="app.diagrams.net" modified="2020-08-09T19:12:33.836Z" agent="5.0 (Macintosh; Intel Mac OS X 10_15_5) AppleWebKit/537.36 (KHTML, like Gecko) Chrome/84.0.4147.105 Safari/537.36" etag="Irzu_3D2Su02grh4JGxS" version="13.4.6" type="github">
  <diagram id="wCquQMoJJ3sNrI-6HOiU" name="Page-1">
    <mxGraphModel dx="1554" dy="842" grid="1" gridSize="10" guides="1" tooltips="1" connect="1" arrows="1" fold="1" page="1" pageScale="1" pageWidth="1169" pageHeight="827" math="0" shadow="1">
      <root>
        <mxCell id="0" />
        <mxCell id="1" parent="0" />
        <mxCell id="hIfOWRtorBvXXaC1enZ6-2" value="" style="edgeStyle=orthogonalEdgeStyle;rounded=0;sketch=1;orthogonalLoop=1;jettySize=auto;html=1;fontFamily=Comic Sans MS;" edge="1" parent="1" source="hIfOWRtorBvXXaC1enZ6-1" target="2">
          <mxGeometry relative="1" as="geometry" />
        </mxCell>
        <mxCell id="hIfOWRtorBvXXaC1enZ6-3" value="step:1" style="edgeLabel;html=1;align=center;verticalAlign=middle;resizable=0;points=[];fontFamily=Comic Sans MS;rounded=1;" vertex="1" connectable="0" parent="hIfOWRtorBvXXaC1enZ6-2">
          <mxGeometry x="-0.14" y="2" relative="1" as="geometry">
            <mxPoint as="offset" />
          </mxGeometry>
        </mxCell>
        <mxCell id="hIfOWRtorBvXXaC1enZ6-1" value="Query/Exec" style="whiteSpace=wrap;html=1;sketch=1;fontFamily=Comic Sans MS;rounded=1;" vertex="1" parent="1">
          <mxGeometry x="10" y="30" width="120" height="60" as="geometry" />
        </mxCell>
        <mxCell id="hIfOWRtorBvXXaC1enZ6-5" value="" style="edgeStyle=orthogonalEdgeStyle;rounded=0;sketch=1;orthogonalLoop=1;jettySize=auto;html=1;fontFamily=Comic Sans MS;" edge="1" parent="1" source="2" target="hIfOWRtorBvXXaC1enZ6-4">
          <mxGeometry relative="1" as="geometry" />
        </mxCell>
        <mxCell id="hIfOWRtorBvXXaC1enZ6-6" value="step:2" style="edgeLabel;html=1;align=center;verticalAlign=middle;resizable=0;points=[];fontFamily=Comic Sans MS;rounded=1;" vertex="1" connectable="0" parent="hIfOWRtorBvXXaC1enZ6-5">
          <mxGeometry x="-0.0929" y="1" relative="1" as="geometry">
            <mxPoint as="offset" />
          </mxGeometry>
        </mxCell>
        <mxCell id="hIfOWRtorBvXXaC1enZ6-12" value="" style="edgeStyle=orthogonalEdgeStyle;rounded=0;sketch=1;orthogonalLoop=1;jettySize=auto;html=1;fontFamily=Comic Sans MS;" edge="1" parent="1" source="2" target="hIfOWRtorBvXXaC1enZ6-11">
          <mxGeometry relative="1" as="geometry" />
        </mxCell>
        <mxCell id="2" value="conn()&lt;br&gt;获取可用连接" style="whiteSpace=wrap;html=1;sketch=1;fontFamily=Comic Sans MS;rounded=1;" vertex="1" parent="1">
          <mxGeometry x="230" y="30" width="120" height="60" as="geometry" />
        </mxCell>
        <mxCell id="hIfOWRtorBvXXaC1enZ6-8" value="" style="edgeStyle=orthogonalEdgeStyle;rounded=0;sketch=1;orthogonalLoop=1;jettySize=auto;html=1;fontFamily=Comic Sans MS;" edge="1" parent="1" source="hIfOWRtorBvXXaC1enZ6-4" target="hIfOWRtorBvXXaC1enZ6-7">
          <mxGeometry relative="1" as="geometry" />
        </mxCell>
        <mxCell id="hIfOWRtorBvXXaC1enZ6-9" value="step:3" style="edgeLabel;html=1;align=center;verticalAlign=middle;resizable=0;points=[];fontFamily=Comic Sans MS;rounded=1;" vertex="1" connectable="0" parent="hIfOWRtorBvXXaC1enZ6-8">
          <mxGeometry x="0.0429" y="1" relative="1" as="geometry">
            <mxPoint as="offset" />
          </mxGeometry>
        </mxCell>
        <mxCell id="hIfOWRtorBvXXaC1enZ6-4" value="do&lt;br&gt;query/exec" style="whiteSpace=wrap;html=1;sketch=1;fontFamily=Comic Sans MS;rounded=1;" vertex="1" parent="1">
          <mxGeometry x="730" y="30" width="120" height="60" as="geometry" />
        </mxCell>
        <mxCell id="hIfOWRtorBvXXaC1enZ6-7" value="putConn()&lt;br&gt;释放连接" style="whiteSpace=wrap;html=1;sketch=1;fontFamily=Comic Sans MS;rounded=1;" vertex="1" parent="1">
          <mxGeometry x="1010" y="30" width="120" height="60" as="geometry" />
        </mxCell>
        <mxCell id="hIfOWRtorBvXXaC1enZ6-14" value="" style="edgeStyle=orthogonalEdgeStyle;rounded=0;sketch=1;orthogonalLoop=1;jettySize=auto;html=1;fontFamily=Comic Sans MS;" edge="1" parent="1" source="hIfOWRtorBvXXaC1enZ6-11" target="hIfOWRtorBvXXaC1enZ6-13">
          <mxGeometry relative="1" as="geometry" />
        </mxCell>
        <mxCell id="hIfOWRtorBvXXaC1enZ6-15" value="Y&lt;br&gt;step:1.2" style="edgeLabel;html=1;align=center;verticalAlign=middle;resizable=0;points=[];fontFamily=Comic Sans MS;" vertex="1" connectable="0" parent="hIfOWRtorBvXXaC1enZ6-14">
          <mxGeometry x="-0.35" y="-1" relative="1" as="geometry">
            <mxPoint as="offset" />
          </mxGeometry>
        </mxCell>
        <mxCell id="hIfOWRtorBvXXaC1enZ6-11" value="len(db.freeConn)&amp;gt;0?&lt;br&gt;判断空闲连接" style="rhombus;whiteSpace=wrap;html=1;fontFamily=Comic Sans MS;sketch=1;rounded=1;" vertex="1" parent="1">
          <mxGeometry x="210" y="130" width="160" height="90" as="geometry" />
        </mxCell>
        <mxCell id="hIfOWRtorBvXXaC1enZ6-17" style="edgeStyle=orthogonalEdgeStyle;rounded=0;sketch=1;orthogonalLoop=1;jettySize=auto;html=1;exitX=1;exitY=0.5;exitDx=0;exitDy=0;entryX=0;entryY=0.5;entryDx=0;entryDy=0;fontFamily=Comic Sans MS;" edge="1" parent="1" source="hIfOWRtorBvXXaC1enZ6-13" target="hIfOWRtorBvXXaC1enZ6-16">
          <mxGeometry relative="1" as="geometry" />
        </mxCell>
        <mxCell id="hIfOWRtorBvXXaC1enZ6-21" value="" style="edgeStyle=orthogonalEdgeStyle;rounded=0;sketch=1;orthogonalLoop=1;jettySize=auto;html=1;fontFamily=Comic Sans MS;" edge="1" parent="1" source="hIfOWRtorBvXXaC1enZ6-13" target="hIfOWRtorBvXXaC1enZ6-20">
          <mxGeometry relative="1" as="geometry" />
        </mxCell>
        <mxCell id="hIfOWRtorBvXXaC1enZ6-22" value="Y&lt;br&gt;step:1.3" style="edgeLabel;html=1;align=center;verticalAlign=middle;resizable=0;points=[];fontFamily=Comic Sans MS;" vertex="1" connectable="0" parent="hIfOWRtorBvXXaC1enZ6-21">
          <mxGeometry x="-0.325" y="-2" relative="1" as="geometry">
            <mxPoint as="offset" />
          </mxGeometry>
        </mxCell>
        <mxCell id="hIfOWRtorBvXXaC1enZ6-13" value="conn.expired(lifetime)&lt;br&gt;连接是否过期" style="rhombus;whiteSpace=wrap;html=1;fontFamily=Comic Sans MS;sketch=1;rounded=1;" vertex="1" parent="1">
          <mxGeometry x="210" y="280" width="160" height="90" as="geometry" />
        </mxCell>
        <mxCell id="hIfOWRtorBvXXaC1enZ6-16" value="To&lt;br&gt;step:2" style="text;html=1;strokeColor=none;fillColor=none;align=center;verticalAlign=middle;whiteSpace=wrap;rounded=0;sketch=1;fontFamily=Comic Sans MS;" vertex="1" parent="1">
          <mxGeometry x="450" y="315" width="40" height="20" as="geometry" />
        </mxCell>
        <mxCell id="hIfOWRtorBvXXaC1enZ6-25" value="" style="edgeStyle=orthogonalEdgeStyle;rounded=0;sketch=1;orthogonalLoop=1;jettySize=auto;html=1;fontFamily=Comic Sans MS;" edge="1" parent="1" source="hIfOWRtorBvXXaC1enZ6-20" target="hIfOWRtorBvXXaC1enZ6-24">
          <mxGeometry relative="1" as="geometry" />
        </mxCell>
        <mxCell id="hIfOWRtorBvXXaC1enZ6-20" value="是否达到最大连接数" style="rhombus;whiteSpace=wrap;html=1;fontFamily=Comic Sans MS;sketch=1;rounded=1;" vertex="1" parent="1">
          <mxGeometry x="210" y="430" width="160" height="90" as="geometry" />
        </mxCell>
        <mxCell id="hIfOWRtorBvXXaC1enZ6-27" value="" style="edgeStyle=orthogonalEdgeStyle;rounded=0;sketch=1;orthogonalLoop=1;jettySize=auto;html=1;fontFamily=Comic Sans MS;" edge="1" parent="1" source="hIfOWRtorBvXXaC1enZ6-24" target="hIfOWRtorBvXXaC1enZ6-26">
          <mxGeometry relative="1" as="geometry" />
        </mxCell>
        <mxCell id="hIfOWRtorBvXXaC1enZ6-24" value="db.drive.Open()&lt;br&gt;创建新的连接" style="whiteSpace=wrap;html=1;rounded=1;fontFamily=Comic Sans MS;sketch=1;" vertex="1" parent="1">
          <mxGeometry x="230" y="615" width="120" height="60" as="geometry" />
        </mxCell>
        <mxCell id="hIfOWRtorBvXXaC1enZ6-29" value="" style="edgeStyle=orthogonalEdgeStyle;rounded=0;sketch=1;orthogonalLoop=1;jettySize=auto;html=1;fontFamily=Comic Sans MS;" edge="1" parent="1" source="hIfOWRtorBvXXaC1enZ6-26" target="hIfOWRtorBvXXaC1enZ6-28">
          <mxGeometry relative="1" as="geometry" />
        </mxCell>
        <mxCell id="hIfOWRtorBvXXaC1enZ6-26" value="创建成功?" style="rhombus;whiteSpace=wrap;html=1;rounded=1;fontFamily=Comic Sans MS;sketch=1;" vertex="1" parent="1">
          <mxGeometry x="250" y="745" width="80" height="80" as="geometry" />
        </mxCell>
        <mxCell id="hIfOWRtorBvXXaC1enZ6-31" value="" style="edgeStyle=orthogonalEdgeStyle;rounded=0;sketch=1;orthogonalLoop=1;jettySize=auto;html=1;fontFamily=Comic Sans MS;" edge="1" parent="1" source="hIfOWRtorBvXXaC1enZ6-28" target="hIfOWRtorBvXXaC1enZ6-30">
          <mxGeometry relative="1" as="geometry" />
        </mxCell>
        <mxCell id="hIfOWRtorBvXXaC1enZ6-28" value="maybeOpenNewConnections" style="whiteSpace=wrap;html=1;rounded=1;fontFamily=Comic Sans MS;sketch=1;" vertex="1" parent="1">
          <mxGeometry x="200" y="910" width="180" height="60" as="geometry" />
        </mxCell>
        <mxCell id="hIfOWRtorBvXXaC1enZ6-30" value="是否有连接请求?" style="rhombus;whiteSpace=wrap;html=1;rounded=1;fontFamily=Comic Sans MS;sketch=1;" vertex="1" parent="1">
          <mxGeometry x="250" y="1040" width="80" height="80" as="geometry" />
        </mxCell>
        <mxCell id="hIfOWRtorBvXXaC1enZ6-46" value="" style="rounded=1;whiteSpace=wrap;html=1;sketch=1;gradientColor=none;fontFamily=Comic Sans MS;" vertex="1" parent="1">
          <mxGeometry x="80" y="1010" width="120" height="60" as="geometry" />
        </mxCell>
      </root>
    </mxGraphModel>
  </diagram>
</mxfile>
